<?xml version="1.0" encoding="UTF-8" standalone="no"?>
<svg
   viewBox="0 0 100 100"
   version="1.1"
   id="svg1977"
   sodipodi:docname="009.svg"
   inkscape:version="1.2.1 (9c6d41e410, 2022-07-14)"
   xmlns:inkscape="http://www.inkscape.org/namespaces/inkscape"
   xmlns:sodipodi="http://sodipodi.sourceforge.net/DTD/sodipodi-0.dtd"
   xmlns="http://www.w3.org/2000/svg"
   xmlns:svg="http://www.w3.org/2000/svg">
  <defs
     id="defs1981" />
  <sodipodi:namedview
     id="namedview1979"
     pagecolor="#ffffff"
     bordercolor="#000000"
     borderopacity="0.25"
     inkscape:showpageshadow="2"
     inkscape:pageopacity="0.0"
     inkscape:pagecheckerboard="0"
     inkscape:deskcolor="#d1d1d1"
     showgrid="false"
     inkscape:zoom="5.6851385"
     inkscape:cx="29.726628"
     inkscape:cy="49.866859"
     inkscape:window-width="1920"
     inkscape:window-height="991"
     inkscape:window-x="-9"
     inkscape:window-y="-9"
     inkscape:window-maximized="1"
     inkscape:current-layer="svg1977" />
  <path
     id="rect437-1-39-5-5-2"
     style="display:inline;fill:#ffffff;fill-opacity:1;stroke:none;stroke-width:0.143403;stroke-dasharray:none;stroke-dashoffset:0.02;stroke-opacity:1"
     d="M 0.1434062,0 V 99.856588 H 100 V 0 Z M 35.92669,5.0081713 c 7.370457,0.136286 14.145028,8.0689707 14.145028,8.0689707 0,0 14.333199,-16.7843704 23.984229,-1.944571 2.794113,4.296342 2.959281,8.823741 1.574686,13.236799 4.413083,-1.384629 8.940482,-1.219429 13.236824,1.574685 4.637423,3.015972 6.186233,6.489028 6.124403,9.839228 -0.13629,7.370429 -8.069,14.145027 -8.069,14.145027 0,0 16.78439,14.3332 1.944597,23.984258 -4.296342,2.794113 -8.823741,2.959282 -13.236824,1.574687 1.384595,4.413083 1.219427,8.940451 -1.574686,13.236793 -9.65103,14.839802 -23.984229,-1.944596 -23.984229,-1.944596 0,0 -6.774571,7.932886 -14.145028,8.068996 -3.350229,0.062 -6.823285,-1.48697 -9.839228,-6.1244 C 23.293319,84.427707 23.128119,79.900338 24.512777,75.487255 20.099691,76.87185 15.57232,76.706681 11.27592,73.912568 -3.56385,64.261509 13.220549,49.92831 13.220549,49.92831 c 0,0 -7.9328858,-6.774599 -8.0689708,-14.145027 -0.062,-3.3502 1.486971,-6.823256 6.1243418,-9.839228 4.2964,-2.794114 8.823771,-2.959314 13.236857,-1.574685 -1.384658,-4.413058 -1.219458,-8.940457 1.574685,-13.236799 3.015943,-4.6374277 6.488999,-6.1861997 9.839228,-6.1243997 z" />
</svg>
